<?xml version="1.0" encoding="UTF-8"?><svg id="a" xmlns="http://www.w3.org/2000/svg" viewBox="0 0 101.76 94.05"><path d="M92.06,50.88c-.59,.72-1.21,1.4-1.87,2.07l-37.24,37.24h0c-1.14,1.14-3,1.14-4.14,0h0L11.56,52.95c-.66-.66-1.29-1.35-1.87-2.07-4.47-5.38-6.69-12.02-6.69-18.61,0-7.49,2.85-14.98,8.56-20.7C21.81,1.33,37.73,.27,49.15,8.38c1.03,.73,2.41,.74,3.44,0,5.05-3.59,10.99-5.38,16.9-5.38,7.49,0,14.98,2.85,20.7,8.56,10.77,10.77,11.39,27.82,1.87,39.31Z" fill="none" stroke="#000" stroke-miterlimit="10" stroke-width="6"/><g opacity=".47"><path d="M71.62,12.31c2.73-.77,5.65-.35,8.29,.89,8.52,3.93,9.85,15.86,3.59,22.44-.66-3.99-.78-7.17-1.74-10.72-1.48-5.6-5.35-9.09-10.14-12.61h0Z"/></g></svg>