<?xml version="1.0" encoding="UTF-8"?><svg id="a" xmlns="http://www.w3.org/2000/svg" viewBox="0 0 128 103.43"><path d="M127,30.88c0,7.65-2.9,15.3-8.69,21.16l-46.67,47.19c-4.22,4.27-11.07,4.27-15.29,0L9.69,52.04C-1.9,40.38-1.9,21.44,9.69,9.79,15.42,3.93,22.99,1,30.55,1s15.13,2.93,20.92,8.79l10.09,10.21c1.35,1.36,3.53,1.36,4.87,0l10.09-10.21c11.52-11.71,30.26-11.71,41.78,0,5.79,5.8,8.69,13.45,8.69,21.1Z" fill="none" stroke="#000" stroke-miterlimit="10" stroke-width="2"/><path d="M102.39,16.85s22.37,12.53,0,31.15" fill="none" stroke="#000" stroke-linecap="round" stroke-linejoin="bevel" stroke-width="2"/><path d="M84.77,19.75c-2.39,.91-2.61,1.56-2.02,1.67,.22,.04,.74-.02,1.49-.22,.63-.17,1.33-.42,1.98-.65,1.62-.58,3.54-1.29,4.39-1.79,.73-.44,.32-.57-.71-.4-1.17,.18-3.4,.75-5.13,1.4Z" fill="none" stroke="#000" stroke-miterlimit="10" stroke-width="2"/></svg>